<?xml version="1.0" encoding="UTF-8" standalone="no"?>
<!-- Created with Inkscape (http://www.inkscape.org/) -->

<svg
   xmlns:dc="http://purl.org/dc/elements/1.1/"
   xmlns:cc="http://creativecommons.org/ns#"
   xmlns:rdf="http://www.w3.org/1999/02/22-rdf-syntax-ns#"
   xmlns:svg="http://www.w3.org/2000/svg"
   xmlns="http://www.w3.org/2000/svg"
   xmlns:sodipodi="http://sodipodi.sourceforge.net/DTD/sodipodi-0.dtd"
   xmlns:inkscape="http://www.inkscape.org/namespaces/inkscape"
   id="svg3004"
   version="1.1"
   inkscape:version="0.48.5 r10040"
   width="450"
   height="450"
   xml:space="preserve"
   sodipodi:docname="WorkDiff_beanplot_detailed2_labeled.pdf"><metadata
     id="metadata3010"><rdf:RDF><cc:Work
         rdf:about=""><dc:format>image/svg+xml</dc:format><dc:type
           rdf:resource="http://purl.org/dc/dcmitype/StillImage" /><dc:title></dc:title></cc:Work></rdf:RDF></metadata><defs
     id="defs3008"><clipPath
       clipPathUnits="userSpaceOnUse"
       id="clipPath3020"><path
         d="m 60.48,31.68 118.08,0 0,325.44 -118.08,0 0,-325.44 z"
         id="path3022" /></clipPath><clipPath
       clipPathUnits="userSpaceOnUse"
       id="clipPath3050"><path
         d="m 1.44,1.44 178.56,0 0,357.12 -178.56,0 0,-357.12 z"
         id="path3052" /></clipPath><clipPath
       clipPathUnits="userSpaceOnUse"
       id="clipPath3062"><path
         d="m 60.48,31.68 118.08,0 0,325.44 -118.08,0 0,-325.44 z"
         id="path3064" /></clipPath><clipPath
       clipPathUnits="userSpaceOnUse"
       id="clipPath3086"><path
         d="m 1.44,1.44 178.56,0 0,357.12 -178.56,0 0,-357.12 z"
         id="path3088" /></clipPath><clipPath
       clipPathUnits="userSpaceOnUse"
       id="clipPath3098"><path
         d="m 60.48,31.68 118.08,0 0,325.44 -118.08,0 0,-325.44 z"
         id="path3100" /></clipPath><clipPath
       clipPathUnits="userSpaceOnUse"
       id="clipPath3108"><path
         d="m 1.44,1.44 178.56,0 0,357.12 -178.56,0 0,-357.12 z"
         id="path3110" /></clipPath><clipPath
       clipPathUnits="userSpaceOnUse"
       id="clipPath3184"><path
         d="m 239.04,31.68 118.08,0 0,325.44 -118.08,0 0,-325.44 z"
         id="path3186" /></clipPath><clipPath
       clipPathUnits="userSpaceOnUse"
       id="clipPath3192"><path
         d="m 239.04,31.68 118.08,0 0,325.44 -118.08,0 0,-325.44 z"
         id="path3194" /></clipPath></defs><sodipodi:namedview
     pagecolor="#ffffff"
     bordercolor="#666666"
     borderopacity="1"
     objecttolerance="10"
     gridtolerance="10"
     guidetolerance="10"
     inkscape:pageopacity="0"
     inkscape:pageshadow="2"
     inkscape:window-width="1542"
     inkscape:window-height="728"
     id="namedview3006"
     showgrid="false"
     inkscape:zoom="1.4833529"
     inkscape:cx="198.88121"
     inkscape:cy="224.66293"
     inkscape:window-x="1397"
     inkscape:window-y="0"
     inkscape:window-maximized="0"
     inkscape:current-layer="g3012" /><g
     id="g3012"
     inkscape:groupmode="layer"
     inkscape:label="WorkDiff_beanplot_detailed2"
     transform="matrix(1.25,0,0,-1.25,0,450)"><g
       id="g3014" /><g
       id="g3016"><g
         id="g3018"
         clip-path="url(#clipPath3020)"><path
           d="m 60.48,155.22 118.08,0"
           style="fill:none;stroke:#000000;stroke-opacity:1;stroke-width:0.75;stroke-linecap:round;stroke-linejoin:round;stroke-miterlimit:10;stroke-dasharray:0,3;stroke-dashoffset:0"
           id="path3024" /><path
           d="m 64.85,155.22 54.67,0"
           style="fill:none;stroke:#4682b4;stroke-opacity:1;stroke-width:1.5;stroke-linecap:round;stroke-linejoin:round;stroke-miterlimit:10;stroke-dasharray:none"
           id="path3026" /><path
           d="m 67.04,100.66 52.48,0"
           style="fill:none;stroke:#4682b4;stroke-opacity:1;stroke-width:0.75;stroke-linecap:round;stroke-linejoin:round;stroke-miterlimit:10;stroke-dasharray:none"
           id="path3028" /><path
           d="m 67.04,116.54 52.48,0"
           style="fill:none;stroke:#4682b4;stroke-opacity:1;stroke-width:0.75;stroke-linecap:round;stroke-linejoin:round;stroke-miterlimit:10;stroke-dasharray:none"
           id="path3030" /><path
           d="m 67.04,145.24 52.48,0"
           style="fill:none;stroke:#4682b4;stroke-opacity:1;stroke-width:0.75;stroke-linecap:round;stroke-linejoin:round;stroke-miterlimit:10;stroke-dasharray:none"
           id="path3032" /><path
           d="m 67.04,148.22 52.48,0"
           style="fill:none;stroke:#4682b4;stroke-opacity:1;stroke-width:0.75;stroke-linecap:round;stroke-linejoin:round;stroke-miterlimit:10;stroke-dasharray:none"
           id="path3034" /><path
           d="m 67.04,149.35 52.48,0"
           style="fill:none;stroke:#4682b4;stroke-opacity:1;stroke-width:0.75;stroke-linecap:round;stroke-linejoin:round;stroke-miterlimit:10;stroke-dasharray:none"
           id="path3036" /><path
           d="m 67.04,167.04 52.48,0"
           style="fill:none;stroke:#4682b4;stroke-opacity:1;stroke-width:0.75;stroke-linecap:round;stroke-linejoin:round;stroke-miterlimit:10;stroke-dasharray:none"
           id="path3038" /><path
           d="m 67.04,178.29 52.48,0"
           style="fill:none;stroke:#4682b4;stroke-opacity:1;stroke-width:0.75;stroke-linecap:round;stroke-linejoin:round;stroke-miterlimit:10;stroke-dasharray:none"
           id="path3040" /><path
           d="m 67.04,179.1 52.48,0"
           style="fill:none;stroke:#4682b4;stroke-opacity:1;stroke-width:0.75;stroke-linecap:round;stroke-linejoin:round;stroke-miterlimit:10;stroke-dasharray:none"
           id="path3042" /><path
           d="m 67.04,212.54 52.48,0"
           style="fill:none;stroke:#4682b4;stroke-opacity:1;stroke-width:0.75;stroke-linecap:round;stroke-linejoin:round;stroke-miterlimit:10;stroke-dasharray:none"
           id="path3044" /></g></g><g
       id="g3046"><g
         id="g3048"
         clip-path="url(#clipPath3050)"><text
           transform="matrix(0,1,1,0,14.4,143.81)"
           id="text3054"><tspan
             style="fill:#000000;fill-opacity:1;fill-rule:nonzero;stroke:none;font-family:Helvetica;font-variant:normal;font-weight:normal;font-size:12;writing-mode:lr;-inkscape-font-specification:Helvetica"
             x="0 8.004 14.676 21.348 24.012 27.348 30.012 36.684 43.356 50.028 52.692 56.028 66.996 73.668 77.844 83.844 87.18 91.176 97.176"
             y="0"
             sodipodi:role="line"
             id="tspan3056">Additional Work (J)</tspan></text>
</g></g><g
       id="g3058"><g
         id="g3060"
         clip-path="url(#clipPath3062)"><path
           d="m 60.48,193.66 118.08,0"
           style="fill:none;stroke:#000000;stroke-opacity:1;stroke-width:0.75;stroke-linecap:round;stroke-linejoin:round;stroke-miterlimit:10;stroke-dasharray:0,3;stroke-dashoffset:0"
           id="path3066" /><path
           d="m 64.85,193.66 54.67,0"
           style="fill:none;stroke:#b22222;stroke-opacity:1;stroke-width:1.5;stroke-linecap:round;stroke-linejoin:round;stroke-miterlimit:10;stroke-dasharray:none"
           id="path3068" /><path
           d="m 67.04,166.8 52.48,0"
           style="fill:none;stroke:#b22222;stroke-opacity:1;stroke-width:0.75;stroke-linecap:round;stroke-linejoin:round;stroke-miterlimit:10;stroke-dasharray:none"
           id="path3070" /><path
           d="m 67.04,170.08 52.48,0"
           style="fill:none;stroke:#b22222;stroke-opacity:1;stroke-width:0.75;stroke-linecap:round;stroke-linejoin:round;stroke-miterlimit:10;stroke-dasharray:none"
           id="path3072" /><path
           d="m 67.04,188.55 52.48,0"
           style="fill:none;stroke:#b22222;stroke-opacity:1;stroke-width:0.75;stroke-linecap:round;stroke-linejoin:round;stroke-miterlimit:10;stroke-dasharray:none"
           id="path3074" /><path
           d="m 67.04,204.43 52.48,0"
           style="fill:none;stroke:#b22222;stroke-opacity:1;stroke-width:0.75;stroke-linecap:round;stroke-linejoin:round;stroke-miterlimit:10;stroke-dasharray:none"
           id="path3076" /><path
           d="m 67.04,215.37 52.48,0"
           style="fill:none;stroke:#b22222;stroke-opacity:1;stroke-width:0.75;stroke-linecap:round;stroke-linejoin:round;stroke-miterlimit:10;stroke-dasharray:none"
           id="path3078" /><path
           d="m 67.04,216.73 52.48,0"
           style="fill:none;stroke:#b22222;stroke-opacity:1;stroke-width:0.75;stroke-linecap:round;stroke-linejoin:round;stroke-miterlimit:10;stroke-dasharray:none"
           id="path3080" /></g></g><g
       id="g3082"><g
         id="g3084"
         clip-path="url(#clipPath3086)"><text
           transform="matrix(0,1,1,0,14.4,143.81)"
           id="text3090"><tspan
             style="fill:#000000;fill-opacity:1;fill-rule:nonzero;stroke:none;font-family:Helvetica;font-variant:normal;font-weight:normal;font-size:12;writing-mode:lr;-inkscape-font-specification:Helvetica"
             x="0 8.004 14.676 21.348 24.012 27.348 30.012 36.684 43.356 50.028 52.692 56.028 66.996 73.668 77.844 83.844 87.18 91.176 97.176"
             y="0"
             sodipodi:role="line"
             id="tspan3092">Additional Work (J)</tspan></text>
</g></g><g
       id="g3094"><g
         id="g3096"
         clip-path="url(#clipPath3098)"><path
           d="m 119.52,285.56 -0.15,0 -0.01,-0.5 -0.02,-0.49 -0.01,-0.5 -0.01,-0.5 -0.01,-0.49 -0.02,-0.5 -0.01,-0.49 -0.02,-0.5 -0.02,-0.5 -0.01,-0.49 -0.02,-0.5 -0.02,-0.5 -0.02,-0.49 -0.03,-0.5 -0.02,-0.5 -0.02,-0.49 -0.03,-0.5 -0.03,-0.5 -0.03,-0.49 -0.03,-0.5 -0.03,-0.5 -0.03,-0.49 -0.04,-0.5 -0.03,-0.5 -0.04,-0.49 -0.04,-0.5 -0.04,-0.5 -0.05,-0.49 -0.05,-0.5 -0.05,-0.5 -0.05,-0.49 -0.05,-0.5 -0.06,-0.5 -0.05,-0.49 -0.07,-0.5 -0.06,-0.49 -0.07,-0.5 -0.06,-0.5 -0.08,-0.49 -0.07,-0.5 -0.08,-0.5 -0.08,-0.49 -0.09,-0.5 -0.08,-0.5 -0.09,-0.49 -0.1,-0.5 -0.1,-0.5 -0.1,-0.49 -0.11,-0.5 -0.1,-0.5 -0.12,-0.49 -0.12,-0.5 -0.12,-0.5 -0.12,-0.49 -0.13,-0.5 -0.14,-0.5 -0.13,-0.49 -0.15,-0.5 -0.14,-0.5 -0.15,-0.49 -0.16,-0.5 -0.16,-0.5 -0.17,-0.49 -0.17,-0.5 -0.17,-0.49 -0.18,-0.5 -0.19,-0.5 -0.19,-0.49 -0.19,-0.5 -0.2,-0.5 -0.21,-0.49 -0.2,-0.5 -0.22,-0.5 -0.22,-0.49 -0.22,-0.5 -0.23,-0.5 -0.23,-0.49 -0.24,-0.5 -0.25,-0.5 -0.25,-0.49 -0.25,-0.5 -0.26,-0.5 -0.26,-0.49 -0.27,-0.5 -0.27,-0.5 -0.28,-0.49 -0.28,-0.5 -0.29,-0.5 -0.29,-0.49 -0.29,-0.5 -0.3,-0.5 -0.3,-0.49 -0.31,-0.5 -0.31,-0.49 -0.32,-0.5 -0.31,-0.5 -0.32,-0.49 -0.33,-0.5 -0.33,-0.5 -0.33,-0.49 -0.33,-0.5 -0.34,-0.5 -0.34,-0.49 -0.34,-0.5 -0.34,-0.5 -0.35,-0.49 -0.35,-0.5 -0.35,-0.5 -0.35,-0.49 -0.35,-0.5 -0.36,-0.5 -0.35,-0.49 -0.36,-0.5 -0.36,-0.5 -0.36,-0.49 -0.36,-0.5 -0.36,-0.5 -0.36,-0.49 -0.35,-0.5 -0.36,-0.5 -0.36,-0.49 -0.36,-0.5 -0.36,-0.49 -0.36,-0.5 -0.35,-0.5 -0.36,-0.49 -0.35,-0.5 -0.35,-0.5 -0.36,-0.49 -0.34,-0.5 -0.35,-0.5 -0.35,-0.49 -0.34,-0.5 -0.34,-0.5 -0.34,-0.49 -0.34,-0.5 -0.33,-0.5 -0.34,-0.49 -0.33,-0.5 -0.32,-0.5 -0.33,-0.49 -0.32,-0.5 -0.32,-0.5 -0.31,-0.49 -0.31,-0.5 -0.31,-0.5 -0.31,-0.49 -0.3,-0.5 -0.3,-0.5 -0.3,-0.49 -0.29,-0.5 -0.29,-0.5 -0.29,-0.49 -0.29,-0.5 -0.28,-0.49 -0.28,-0.5 -0.27,-0.5 -0.27,-0.49 -0.27,-0.5 -0.27,-0.5 -0.26,-0.49 -0.26,-0.5 -0.25,-0.5 -0.25,-0.49 -0.25,-0.5 -0.25,-0.5 -0.24,-0.49 -0.24,-0.5 -0.24,-0.5 -0.24,-0.49 -0.23,-0.5 -0.23,-0.5 -0.22,-0.49 -0.23,-0.5 -0.22,-0.5 -0.21,-0.49 -0.22,-0.5 -0.21,-0.5 -0.21,-0.49 -0.2,-0.5 -0.2,-0.5 -0.2,-0.49 -0.2,-0.5 -0.2,-0.49 -0.19,-0.5 -0.18,-0.5 -0.19,-0.49 -0.18,-0.5 -0.18,-0.5 -0.17,-0.49 -0.18,-0.5 -0.17,-0.5 -0.16,-0.49 -0.17,-0.5 -0.15,-0.5 -0.16,-0.49 -0.15,-0.5 -0.15,-0.5 -0.15,-0.49 -0.14,-0.5 -0.13,-0.5 -0.14,-0.49 -0.13,-0.5 -0.12,-0.5 -0.12,-0.49 -0.12,-0.5 -0.11,-0.5 -0.11,-0.49 -0.1,-0.5 -0.1,-0.5 -0.09,-0.49 -0.08,-0.5 -0.09,-0.49 -0.07,-0.5 -0.08,-0.5 -0.06,-0.49 -0.06,-0.5 -0.06,-0.5 -0.04,-0.49 -0.05,-0.5 -0.03,-0.5 -0.04,-0.49 -0.02,-0.5 -0.02,-0.5 -0.01,-0.49 0,-0.5 0,-0.5 0.01,-0.49 0.01,-0.5 0.02,-0.5 0.03,-0.49 0.04,-0.5 0.04,-0.5 0.05,-0.49 0.06,-0.5 0.06,-0.5 0.07,-0.49 0.08,-0.5 0.09,-0.5 0.09,-0.49 0.1,-0.5 0.11,-0.49 0.11,-0.5 0.12,-0.5 0.13,-0.49 0.13,-0.5 0.15,-0.5 0.15,-0.49 0.16,-0.5 0.16,-0.5 0.17,-0.49 0.18,-0.5 0.18,-0.5 0.19,-0.49 0.2,-0.5 0.2,-0.5 0.21,-0.49 0.21,-0.5 0.23,-0.5 0.22,-0.49 0.23,-0.5 0.24,-0.5 0.25,-0.49 0.25,-0.5 0.25,-0.5 0.26,-0.49 0.26,-0.5 0.27,-0.5 0.27,-0.49 0.28,-0.5 0.28,-0.49 0.29,-0.5 0.28,-0.5 0.3,-0.49 0.29,-0.5 0.3,-0.5 0.3,-0.49 0.31,-0.5 0.3,-0.5 0.31,-0.49 0.31,-0.5 0.31,-0.5 0.32,-0.49 0.31,-0.5 0.32,-0.5 0.32,-0.49 0.32,-0.5 0.32,-0.5 0.32,-0.49 0.32,-0.5 0.32,-0.5 0.32,-0.49 0.32,-0.5 0.32,-0.5 0.32,-0.49 0.32,-0.5 0.31,-0.5 0.32,-0.49 0.31,-0.5 0.32,-0.49 0.31,-0.5 0.31,-0.5 0.31,-0.49 0.31,-0.5 0.3,-0.5 0.3,-0.49 0.3,-0.5 0.3,-0.5 0.3,-0.49 0.29,-0.5 0.29,-0.5 0.29,-0.49 0.28,-0.5 0.29,-0.5 0.28,-0.49 0.27,-0.5 0.28,-0.5 0.27,-0.49 0.26,-0.5 0.27,-0.5 0.26,-0.49 0.26,-0.5 0.25,-0.5 0.25,-0.49 0.25,-0.5 0.25,-0.5 0.24,-0.49 0.24,-0.5 0.23,-0.5 0.24,-0.49 0.23,-0.5 0.22,-0.49 0.23,-0.5 0.22,-0.5 0.22,-0.49 0.22,-0.5 0.21,-0.5 0.21,-0.49 0.21,-0.5 0.2,-0.5 0.21,-0.49 0.2,-0.5 0.2,-0.5 0.2,-0.49 0.19,-0.5 0.19,-0.5 0.19,-0.49 0.19,-0.5 0.19,-0.5 0.19,-0.49 0.18,-0.5 0.18,-0.5 0.19,-0.49 0.17,-0.5 0.18,-0.5 0.18,-0.49 0.18,-0.5 0.17,-0.5 0.18,-0.49 0.17,-0.5 0.17,-0.49 0.17,-0.5 0.17,-0.5 0.17,-0.49 0.17,-0.5 0.17,-0.5 0.17,-0.49 0.16,-0.5 0.17,-0.5 0.17,-0.49 0.16,-0.5 0.17,-0.5 0.16,-0.49 0.17,-0.5 0.16,-0.5 0.17,-0.49 0.16,-0.5 0.17,-0.5 0.16,-0.49 0.16,-0.5 0.16,-0.5 0.17,-0.49 0.16,-0.5 0.16,-0.5 0.16,-0.49 0.16,-0.5 0.16,-0.5 0.16,-0.49 0.16,-0.5 0.16,-0.49 0.16,-0.5 0.16,-0.5 0.15,-0.49 0.16,-0.5 0.16,-0.5 0.15,-0.49 0.15,-0.5 0.16,-0.5 0.15,-0.49 0.15,-0.5 0.15,-0.5 0.15,-0.49 0.15,-0.5 0.15,-0.5 0.15,-0.49 0.14,-0.5 0.15,-0.5 0.14,-0.49 0.14,-0.5 0.14,-0.5 0.14,-0.49 0.14,-0.5 0.14,-0.5 0.13,-0.49 0.13,-0.5 0.13,-0.5 0.13,-0.49 0.13,-0.5 0.13,-0.49 0.12,-0.5 0.13,-0.5 0.12,-0.49 0.12,-0.5 0.11,-0.5 0.12,-0.49 0.11,-0.5 0.11,-0.5 0.11,-0.49 0.11,-0.5 0.1,-0.5 0.11,-0.49 0.1,-0.5 0.1,-0.5 0.1,-0.49 0.09,-0.5 0.09,-0.5 0.1,-0.49 0.08,-0.5 0.09,-0.5 0.09,-0.49 0.08,-0.5 0.08,-0.5 0.08,-0.49 0.08,-0.5 0.07,-0.5 0.08,-0.49 0.07,-0.5 0.06,-0.49 0.07,-0.5 0.07,-0.5 0.06,-0.49 0.06,-0.5 0.06,-0.5 0.06,-0.49 0.06,-0.5 0.05,-0.5 0.05,-0.49 0.05,-0.5 0.05,-0.5 0.05,-0.49 0.05,-0.5 0.04,-0.5 0.04,-0.49 0.05,-0.5 0.04,-0.5 0.03,-0.49 0.04,-0.5 0.04,-0.5 0.03,-0.49 0.04,-0.5 0.03,-0.5 0.03,-0.49 0.03,-0.5 0.02,-0.5 0.03,-0.49 0.03,-0.5 0.02,-0.49 0.03,-0.5 0.02,-0.5 0.02,-0.49 0.02,-0.5 0.02,-0.5 0.02,-0.49 0.02,-0.5 0.02,-0.5 0.01,-0.49 0.02,-0.5 0.02,-0.5 0.01,-0.49 0.01,-0.5 0.02,-0.5 0.01,-0.49 0.01,-0.5 0.01,-0.5 0.01,-0.49 0.01,-0.5 0.01,-0.5 0.01,-0.49 0.01,-0.5 0.01,-0.5 0.01,-0.49 0,-0.5 0.01,-0.5 0.01,-0.49 0,-0.5 0.01,-0.5 0.01,-0.49 0,-0.5 0.01,-0.49 0,-0.5 0,-0.5 0.07,0"
           style="fill:none;stroke:#000000;stroke-opacity:1;stroke-width:0.75;stroke-linecap:round;stroke-linejoin:round;stroke-miterlimit:10;stroke-dasharray:none"
           id="path3102" /></g></g><g
       id="g3104"><g
         id="g3106"
         clip-path="url(#clipPath3108)"><text
           transform="matrix(0,1,1,0,14.4,143.81)"
           id="text3112"><tspan
             style="fill:#000000;fill-opacity:1;fill-rule:nonzero;stroke:none;font-family:Helvetica;font-variant:normal;font-weight:normal;font-size:12;writing-mode:lr;-inkscape-font-specification:Helvetica"
             x="0 8.004 14.676 21.348 24.012 27.348 30.012 36.684 43.356 50.028 52.692 56.028 66.996 73.668 77.844 83.844 87.18 91.176 97.176"
             y="0"
             sodipodi:role="line"
             id="tspan3114">Additional Work (J)</tspan></text>
</g></g><g
       id="g3116"><path
         d="m 60.48,43.73 0,251.11"
         style="fill:none;stroke:#000000;stroke-opacity:1;stroke-width:0.75;stroke-linecap:round;stroke-linejoin:round;stroke-miterlimit:10;stroke-dasharray:none"
         id="path3118" /><path
         d="m 60.48,43.73 -7.2,0"
         style="fill:none;stroke:#000000;stroke-opacity:1;stroke-width:0.75;stroke-linecap:round;stroke-linejoin:round;stroke-miterlimit:10;stroke-dasharray:none"
         id="path3120" /><path
         d="m 60.48,93.96 -7.2,0"
         style="fill:none;stroke:#000000;stroke-opacity:1;stroke-width:0.75;stroke-linecap:round;stroke-linejoin:round;stroke-miterlimit:10;stroke-dasharray:none"
         id="path3122" /><path
         d="m 60.48,144.18 -7.2,0"
         style="fill:none;stroke:#000000;stroke-opacity:1;stroke-width:0.75;stroke-linecap:round;stroke-linejoin:round;stroke-miterlimit:10;stroke-dasharray:none"
         id="path3124" /><path
         d="m 60.48,194.4 -7.2,0"
         style="fill:none;stroke:#000000;stroke-opacity:1;stroke-width:0.75;stroke-linecap:round;stroke-linejoin:round;stroke-miterlimit:10;stroke-dasharray:none"
         id="path3126" /><path
         d="m 60.48,244.62 -7.2,0"
         style="fill:none;stroke:#000000;stroke-opacity:1;stroke-width:0.75;stroke-linecap:round;stroke-linejoin:round;stroke-miterlimit:10;stroke-dasharray:none"
         id="path3128" /><path
         d="m 60.48,294.84 -7.2,0"
         style="fill:none;stroke:#000000;stroke-opacity:1;stroke-width:0.75;stroke-linecap:round;stroke-linejoin:round;stroke-miterlimit:10;stroke-dasharray:none"
         id="path3130" /><text
         transform="matrix(0,1,1,0,42.97,34.84)"
         id="text3132"><tspan
           style="fill:#000000;fill-opacity:1;fill-rule:nonzero;stroke:none;font-family:Helvetica;font-variant:normal;font-weight:normal;font-size:12;writing-mode:lr;-inkscape-font-specification:Helvetica"
           x="0 6.672"
           y="0"
           sodipodi:role="line"
           id="tspan3134">10</tspan></text>
<text
         transform="matrix(0,1,1,0,37.01,48.18)"
         id="text3136"><tspan
           style="fill:#000000;fill-opacity:1;fill-rule:nonzero;stroke:none;font-family:Helvetica;font-variant:normal;font-weight:normal;font-size:8;writing-mode:lr;-inkscape-font-specification:Helvetica"
           x="0"
           y="0"
           id="tspan3138">7</tspan></text>
<text
         transform="matrix(0,1,1,0,42.97,85.06)"
         id="text3140"><tspan
           style="fill:#000000;fill-opacity:1;fill-rule:nonzero;stroke:none;font-family:Helvetica;font-variant:normal;font-weight:normal;font-size:12;writing-mode:lr;-inkscape-font-specification:Helvetica"
           x="0 6.672"
           y="0"
           sodipodi:role="line"
           id="tspan3142">10</tspan></text>
<text
         transform="matrix(0,1,1,0,37.01,98.4)"
         id="text3144"><tspan
           style="fill:#000000;fill-opacity:1;fill-rule:nonzero;stroke:none;font-family:Helvetica;font-variant:normal;font-weight:normal;font-size:8;writing-mode:lr;-inkscape-font-specification:Helvetica"
           x="0"
           y="0"
           id="tspan3146">8</tspan></text>
<text
         transform="matrix(0,1,1,0,42.97,135.28)"
         id="text3148"><tspan
           style="fill:#000000;fill-opacity:1;fill-rule:nonzero;stroke:none;font-family:Helvetica;font-variant:normal;font-weight:normal;font-size:12;writing-mode:lr;-inkscape-font-specification:Helvetica"
           x="0 6.672"
           y="0"
           sodipodi:role="line"
           id="tspan3150">10</tspan></text>
<text
         transform="matrix(0,1,1,0,37.01,148.63)"
         id="text3152"><tspan
           style="fill:#000000;fill-opacity:1;fill-rule:nonzero;stroke:none;font-family:Helvetica;font-variant:normal;font-weight:normal;font-size:8;writing-mode:lr;-inkscape-font-specification:Helvetica"
           x="0"
           y="0"
           id="tspan3154">9</tspan></text>
<text
         transform="matrix(0,1,1,0,42.97,183.28)"
         id="text3156"><tspan
           style="fill:#000000;fill-opacity:1;fill-rule:nonzero;stroke:none;font-family:Helvetica;font-variant:normal;font-weight:normal;font-size:12;writing-mode:lr;-inkscape-font-specification:Helvetica"
           x="0 6.672"
           y="0"
           sodipodi:role="line"
           id="tspan3158">10</tspan></text>
<text
         transform="matrix(0,1,1,0,37.01,196.62)"
         id="text3160"><tspan
           style="fill:#000000;fill-opacity:1;fill-rule:nonzero;stroke:none;font-family:Helvetica;font-variant:normal;font-weight:normal;font-size:8;writing-mode:lr;-inkscape-font-specification:Helvetica"
           x="0 4.448"
           y="0"
           sodipodi:role="line"
           id="tspan3162">10</tspan></text>
<text
         transform="matrix(0,1,1,0,42.97,233.5)"
         id="text3164"><tspan
           style="fill:#000000;fill-opacity:1;fill-rule:nonzero;stroke:none;font-family:Helvetica;font-variant:normal;font-weight:normal;font-size:12;writing-mode:lr;-inkscape-font-specification:Helvetica"
           x="0 6.672"
           y="0"
           sodipodi:role="line"
           id="tspan3166">10</tspan></text>
<text
         transform="matrix(0,1,1,0,37.01,246.85)"
         id="text3168"><tspan
           style="fill:#000000;fill-opacity:1;fill-rule:nonzero;stroke:none;font-family:Helvetica;font-variant:normal;font-weight:normal;font-size:8;writing-mode:lr;-inkscape-font-specification:Helvetica"
           x="0 4.448"
           y="0"
           sodipodi:role="line"
           id="tspan3170">11</tspan></text>
<text
         transform="matrix(0,1,1,0,42.97,283.72)"
         id="text3172"><tspan
           style="fill:#000000;fill-opacity:1;fill-rule:nonzero;stroke:none;font-family:Helvetica;font-variant:normal;font-weight:normal;font-size:12;writing-mode:lr;-inkscape-font-specification:Helvetica"
           x="0 6.672"
           y="0"
           sodipodi:role="line"
           id="tspan3174">10</tspan></text>
<text
         transform="matrix(0,1,1,0,37.01,297.07)"
         id="text3176"><tspan
           style="fill:#000000;fill-opacity:1;fill-rule:nonzero;stroke:none;font-family:Helvetica;font-variant:normal;font-weight:normal;font-size:8;writing-mode:lr;-inkscape-font-specification:Helvetica"
           x="0 4.448"
           y="0"
           sodipodi:role="line"
           id="tspan3178">12</tspan></text>
</g><g
       id="g3180"><g
         id="g3182"
         clip-path="url(#clipPath3184)" /></g><g
       id="g3188"
       transform="translate(-12.8,0)"><g
         id="g3190"
         clip-path="url(#clipPath3192)"><path
           d="m 239.04,204.36 118.08,0"
           style="fill:none;stroke:#000000;stroke-width:0.75;stroke-linecap:round;stroke-linejoin:round;stroke-miterlimit:10;stroke-opacity:1;stroke-dasharray:0, 3;stroke-dashoffset:0"
           id="path3196"
           inkscape:connector-curvature="0" /><path
           d="m 243.41,204.36 54.67,0"
           style="fill:none;stroke:#4682b4;stroke-width:1.5;stroke-linecap:round;stroke-linejoin:round;stroke-miterlimit:10;stroke-opacity:1;stroke-dasharray:none"
           id="path3198"
           inkscape:connector-curvature="0" /><path
           d="m 245.6,160.13 52.48,0"
           style="fill:none;stroke:#4682b4;stroke-width:0.75;stroke-linecap:round;stroke-linejoin:round;stroke-miterlimit:10;stroke-opacity:1;stroke-dasharray:none"
           id="path3200"
           inkscape:connector-curvature="0" /><path
           d="m 245.6,184.17 52.48,0"
           style="fill:none;stroke:#4682b4;stroke-width:0.75;stroke-linecap:round;stroke-linejoin:round;stroke-miterlimit:10;stroke-opacity:1;stroke-dasharray:none"
           id="path3202"
           inkscape:connector-curvature="0" /><path
           d="m 245.6,194.22 52.48,0"
           style="fill:none;stroke:#4682b4;stroke-width:0.75;stroke-linecap:round;stroke-linejoin:round;stroke-miterlimit:10;stroke-opacity:1;stroke-dasharray:none"
           id="path3204"
           inkscape:connector-curvature="0" /><path
           d="m 245.6,205.24 52.48,0"
           style="fill:none;stroke:#4682b4;stroke-width:0.75;stroke-linecap:round;stroke-linejoin:round;stroke-miterlimit:10;stroke-opacity:1;stroke-dasharray:none"
           id="path3206"
           inkscape:connector-curvature="0" /><path
           d="m 245.6,210.04 52.48,0"
           style="fill:none;stroke:#4682b4;stroke-width:0.75;stroke-linecap:round;stroke-linejoin:round;stroke-miterlimit:10;stroke-opacity:1;stroke-dasharray:none"
           id="path3208"
           inkscape:connector-curvature="0" /><path
           d="m 245.6,213.78 52.48,0"
           style="fill:none;stroke:#4682b4;stroke-width:0.75;stroke-linecap:round;stroke-linejoin:round;stroke-miterlimit:10;stroke-opacity:1;stroke-dasharray:none"
           id="path3210"
           inkscape:connector-curvature="0" /><path
           d="m 245.6,214.94 52.48,0"
           style="fill:none;stroke:#4682b4;stroke-width:0.75;stroke-linecap:round;stroke-linejoin:round;stroke-miterlimit:10;stroke-opacity:1;stroke-dasharray:none"
           id="path3212"
           inkscape:connector-curvature="0" /><path
           d="m 245.6,220.08 52.48,0"
           style="fill:none;stroke:#4682b4;stroke-width:0.75;stroke-linecap:round;stroke-linejoin:round;stroke-miterlimit:10;stroke-opacity:1;stroke-dasharray:none"
           id="path3214"
           inkscape:connector-curvature="0" /><path
           d="m 245.6,236.68 52.48,0"
           style="fill:none;stroke:#4682b4;stroke-width:0.75;stroke-linecap:round;stroke-linejoin:round;stroke-miterlimit:10;stroke-opacity:1;stroke-dasharray:none"
           id="path3216"
           inkscape:connector-curvature="0" /><path
           d="m 239.04,240.2 118.08,0"
           style="fill:none;stroke:#000000;stroke-width:0.75;stroke-linecap:round;stroke-linejoin:round;stroke-miterlimit:10;stroke-opacity:1;stroke-dasharray:0, 3;stroke-dashoffset:0"
           id="path3218"
           inkscape:connector-curvature="0" /><path
           d="m 243.41,240.2 54.67,0"
           style="fill:none;stroke:#b22222;stroke-width:1.5;stroke-linecap:round;stroke-linejoin:round;stroke-miterlimit:10;stroke-opacity:1;stroke-dasharray:none"
           id="path3220"
           inkscape:connector-curvature="0" /><path
           d="m 245.6,199.99 52.48,0"
           style="fill:none;stroke:#b22222;stroke-width:0.75;stroke-linecap:round;stroke-linejoin:round;stroke-miterlimit:10;stroke-opacity:1;stroke-dasharray:none"
           id="path3222"
           inkscape:connector-curvature="0" /><path
           d="m 245.6,216.07 52.48,0"
           style="fill:none;stroke:#b22222;stroke-width:0.75;stroke-linecap:round;stroke-linejoin:round;stroke-miterlimit:10;stroke-opacity:1;stroke-dasharray:none"
           id="path3224"
           inkscape:connector-curvature="0" /><path
           d="m 245.6,225.06 52.48,0"
           style="fill:none;stroke:#b22222;stroke-width:0.75;stroke-linecap:round;stroke-linejoin:round;stroke-miterlimit:10;stroke-opacity:1;stroke-dasharray:none"
           id="path3226"
           inkscape:connector-curvature="0" /><path
           d="m 245.6,253.88 52.48,0"
           style="fill:none;stroke:#b22222;stroke-width:0.75;stroke-linecap:round;stroke-linejoin:round;stroke-miterlimit:10;stroke-opacity:1;stroke-dasharray:none"
           id="path3228"
           inkscape:connector-curvature="0" /><path
           d="m 245.6,267.02 52.48,0"
           style="fill:none;stroke:#b22222;stroke-width:0.75;stroke-linecap:round;stroke-linejoin:round;stroke-miterlimit:10;stroke-opacity:1;stroke-dasharray:none"
           id="path3230"
           inkscape:connector-curvature="0" /><path
           d="m 245.6,279.18 52.48,0"
           style="fill:none;stroke:#b22222;stroke-width:0.75;stroke-linecap:round;stroke-linejoin:round;stroke-miterlimit:10;stroke-opacity:1;stroke-dasharray:none"
           id="path3232"
           inkscape:connector-curvature="0" /><path
           d="m 298.08,315.38 -0.07,0 -0.01,-0.37 0,-0.38 -0.01,-0.37 -0.01,-0.38 -0.01,-0.37 -0.01,-0.38 -0.01,-0.37 -0.01,-0.38 -0.02,-0.37 -0.01,-0.38 -0.01,-0.37 -0.02,-0.37 -0.02,-0.38 -0.02,-0.37 -0.02,-0.38 -0.02,-0.37 -0.02,-0.38 -0.02,-0.37 -0.03,-0.38 -0.03,-0.37 -0.03,-0.38 -0.03,-0.37 -0.03,-0.38 -0.04,-0.37 -0.04,-0.38 -0.03,-0.37 -0.05,-0.37 -0.04,-0.38 -0.05,-0.37 -0.05,-0.38 -0.05,-0.37 -0.06,-0.38 -0.05,-0.37 -0.06,-0.38 -0.07,-0.37 -0.07,-0.38 -0.07,-0.37 -0.07,-0.38 -0.08,-0.37 -0.08,-0.38 -0.08,-0.37 -0.09,-0.38 -0.09,-0.37 -0.09,-0.37 -0.1,-0.38 -0.1,-0.37 -0.11,-0.38 -0.11,-0.37 -0.11,-0.38 -0.12,-0.37 -0.12,-0.38 -0.12,-0.37 -0.13,-0.38 -0.14,-0.37 -0.13,-0.38 -0.14,-0.37 -0.14,-0.38 -0.15,-0.37 -0.15,-0.37 -0.15,-0.38 -0.16,-0.37 -0.16,-0.38 -0.16,-0.37 -0.17,-0.38 -0.17,-0.37 -0.17,-0.38 -0.17,-0.37 -0.18,-0.38 -0.18,-0.37 -0.18,-0.38 -0.18,-0.37 -0.18,-0.38 -0.19,-0.37 -0.19,-0.37 -0.18,-0.38 -0.19,-0.37 -0.19,-0.38 -0.19,-0.37 -0.19,-0.38 -0.19,-0.37 -0.19,-0.38 -0.19,-0.37 -0.19,-0.38 -0.19,-0.37 -0.19,-0.38 -0.18,-0.37 -0.19,-0.38 -0.18,-0.37 -0.18,-0.37 -0.18,-0.38 -0.17,-0.37 -0.18,-0.38 -0.17,-0.37 -0.17,-0.38 -0.16,-0.37 -0.17,-0.38 -0.15,-0.37 -0.16,-0.38 -0.15,-0.37 -0.15,-0.38 -0.14,-0.37 -0.14,-0.38 -0.14,-0.37 -0.13,-0.37 -0.13,-0.38 -0.12,-0.37 -0.12,-0.38 -0.12,-0.37 -0.11,-0.38 -0.1,-0.37 -0.1,-0.38 -0.1,-0.37 -0.09,-0.38 -0.09,-0.37 -0.08,-0.38 -0.08,-0.37 -0.07,-0.38 -0.07,-0.37 -0.07,-0.37 -0.06,-0.38 -0.06,-0.37 -0.05,-0.38 -0.04,-0.37 -0.05,-0.38 -0.04,-0.37 -0.03,-0.38 -0.03,-0.37 -0.03,-0.38 -0.02,-0.37 -0.02,-0.38 -0.02,-0.37 -0.01,-0.38 -0.01,-0.37 -0.01,-0.37 0,-0.38 0,-0.37 0,-0.38 0,-0.37 0.01,-0.38 0.01,-0.37 0.01,-0.38 0.02,-0.37 0.01,-0.38 0.02,-0.37 0.02,-0.38 0.02,-0.37 0.02,-0.38 0.03,-0.37 0.02,-0.37 0.03,-0.38 0.02,-0.37 0.03,-0.38 0.02,-0.37 0.03,-0.38 0.02,-0.37 0.03,-0.38 0.02,-0.37 0.03,-0.38 0.02,-0.37 0.02,-0.38 0.02,-0.37 0.02,-0.38 0.01,-0.37 0.02,-0.37 0.01,-0.38 0.01,-0.37 0,-0.38 0,-0.37 0,-0.38 -0.01,-0.37 -0.01,-0.38 -0.01,-0.37 -0.02,-0.38 -0.02,-0.37 -0.03,-0.38 -0.03,-0.37 -0.04,-0.38 -0.05,-0.37 -0.05,-0.38 -0.06,-0.37 -0.06,-0.37 -0.08,-0.38 -0.08,-0.37 -0.08,-0.38 -0.1,-0.37 -0.1,-0.38 -0.11,-0.37 -0.12,-0.38 -0.13,-0.37 -0.13,-0.38 -0.15,-0.37 -0.16,-0.38 -0.16,-0.37 -0.18,-0.38 -0.19,-0.37 -0.19,-0.37 -0.21,-0.38 -0.21,-0.37 -0.23,-0.38 -0.24,-0.37 -0.25,-0.38 -0.26,-0.37 -0.27,-0.38 -0.28,-0.37 -0.29,-0.38 -0.31,-0.37 -0.31,-0.38 -0.33,-0.37 -0.34,-0.38 -0.35,-0.37 -0.36,-0.37 -0.37,-0.38 -0.38,-0.37 -0.39,-0.38 -0.4,-0.37 -0.41,-0.38 -0.42,-0.37 -0.44,-0.38 -0.44,-0.37 -0.45,-0.38 -0.45,-0.37 -0.47,-0.38 -0.47,-0.37 -0.49,-0.38 -0.48,-0.37 -0.5,-0.37 -0.5,-0.38 -0.5,-0.37 -0.52,-0.38 -0.51,-0.37 -0.52,-0.38 -0.52,-0.37 -0.52,-0.38 -0.53,-0.37 -0.52,-0.38 -0.53,-0.37 -0.52,-0.38 -0.52,-0.37 -0.53,-0.38 -0.51,-0.37 -0.52,-0.37 -0.51,-0.38 -0.5,-0.37 -0.5,-0.38 -0.49,-0.37 -0.48,-0.38 -0.47,-0.37 -0.47,-0.38 -0.45,-0.37 -0.44,-0.38 -0.43,-0.37 -0.42,-0.38 -0.41,-0.37 -0.39,-0.38 -0.37,-0.37 -0.36,-0.37 -0.35,-0.38 -0.33,-0.37 -0.31,-0.38 -0.29,-0.37 -0.28,-0.38 -0.25,-0.37 -0.24,-0.38 -0.22,-0.37 -0.2,-0.38 -0.17,-0.37 -0.16,-0.38 -0.14,-0.37 -0.12,-0.38 -0.1,-0.37 -0.07,-0.37 -0.05,-0.38 -0.04,-0.37 -0.01,-0.38 0.01,-0.37 0.02,-0.38 0.05,-0.37 0.07,-0.38 0.08,-0.37 0.11,-0.38 0.13,-0.37 0.14,-0.38 0.17,-0.37 0.18,-0.38 0.2,-0.37 0.21,-0.37 0.24,-0.38 0.24,-0.37 0.27,-0.38 0.28,-0.37 0.29,-0.38 0.31,-0.37 0.32,-0.38 0.33,-0.37 0.35,-0.38 0.35,-0.37 0.37,-0.38 0.38,-0.37 0.39,-0.38 0.39,-0.37 0.4,-0.37 0.42,-0.38 0.41,-0.37 0.43,-0.38 0.43,-0.37 0.44,-0.38 0.44,-0.37 0.45,-0.38 0.45,-0.37 0.45,-0.38 0.46,-0.37 0.45,-0.38 0.46,-0.37 0.47,-0.38 0.46,-0.37 0.46,-0.38 0.47,-0.37 0.46,-0.37 0.47,-0.38 0.46,-0.37 0.46,-0.38 0.46,-0.37 0.46,-0.38 0.46,-0.37 0.45,-0.38 0.46,-0.37 0.45,-0.38 0.44,-0.37 0.45,-0.38 0.44,-0.37 0.44,-0.38 0.43,-0.37 0.43,-0.37 0.43,-0.38 0.42,-0.37 0.42,-0.38 0.41,-0.37 0.41,-0.38 0.4,-0.37 0.4,-0.38 0.4,-0.37 0.39,-0.38 0.38,-0.37 0.38,-0.38 0.37,-0.37 0.37,-0.38 0.36,-0.37 0.36,-0.37 0.35,-0.38 0.34,-0.37 0.34,-0.38 0.33,-0.37 0.32,-0.38 0.32,-0.37 0.31,-0.38 0.31,-0.37 0.3,-0.38 0.28,-0.37 0.29,-0.38 0.28,-0.37 0.26,-0.38 0.27,-0.37 0.25,-0.37 0.25,-0.38 0.24,-0.37 0.23,-0.38 0.23,-0.37 0.22,-0.38 0.21,-0.37 0.2,-0.38 0.2,-0.37 0.18,-0.38 0.18,-0.37 0.18,-0.38 0.17,-0.37 0.15,-0.38 0.16,-0.37 0.14,-0.37 0.14,-0.38 0.13,-0.37 0.13,-0.38 0.12,-0.37 0.11,-0.38 0.11,-0.37 0.1,-0.38 0.1,-0.37 0.09,-0.38 0.09,-0.37 0.08,-0.38 0.08,-0.37 0.08,-0.38 0.07,-0.37 0.07,-0.37 0.06,-0.38 0.06,-0.37 0.06,-0.38 0.06,-0.37 0.05,-0.38 0.06,-0.37 0.05,-0.38 0.05,-0.37 0.05,-0.38 0.05,-0.37 0.05,-0.38 0.05,-0.37 0.06,-0.38 0.05,-0.37 0.05,-0.37 0.05,-0.38 0.06,-0.37 0.06,-0.38 0.06,-0.37 0.06,-0.38 0.06,-0.37 0.06,-0.38 0.07,-0.37 0.07,-0.38 0.07,-0.37 0.08,-0.38 0.08,-0.37 0.08,-0.38 0.08,-0.37 0.09,-0.37 0.09,-0.38 0.09,-0.37 0.09,-0.38 0.1,-0.37 0.1,-0.38 0.1,-0.37 0.11,-0.38 0.1,-0.37 0.11,-0.38 0.11,-0.37 0.12,-0.38 0.11,-0.37 0.12,-0.38 0.11,-0.37 0.12,-0.37 0.12,-0.38 0.12,-0.37 0.12,-0.38 0.12,-0.37 0.12,-0.38 0.12,-0.37 0.12,-0.38 0.13,-0.37 0.12,-0.38 0.12,-0.37 0.11,-0.38 0.12,-0.37 0.12,-0.38 0.12,-0.37 0.11,-0.37 0.11,-0.38 0.11,-0.37 0.11,-0.38 0.11,-0.37 0.1,-0.38 0.11,-0.37 0.1,-0.38 0.09,-0.37 0.1,-0.38 0.09,-0.37 0.09,-0.38 0.09,-0.37 0.09,-0.38 0.08,-0.37 0.08,-0.38 0.08,-0.37 0.07,-0.37 0.07,-0.38 0.07,-0.37 0.07,-0.38 0.07,-0.37 0.06,-0.38 0.06,-0.37 0.05,-0.38 0.06,-0.37 0.05,-0.38 0.05,-0.37 0.04,-0.38 0.05,-0.37 0.04,-0.38 0.04,-0.37 0.04,-0.37 0.04,-0.38 0.03,-0.37 0.03,-0.38 0.04,-0.37 0.02,-0.38 0.03,-0.37 0.03,-0.38 0.02,-0.37 0.02,-0.38 0.02,-0.37 0.02,-0.38 0.02,-0.37 0.02,-0.38 0.02,-0.37 0.01,-0.37 0.02,-0.38 0.01,-0.37 0.01,-0.38 0.01,-0.37 0.01,-0.38 0.01,-0.37 0.01,-0.38 0.01,-0.37 0.01,-0.38 0.01,-0.37 0,-0.38 0.07,0"
           style="fill:none;stroke:#000000;stroke-width:0.75;stroke-linecap:round;stroke-linejoin:round;stroke-miterlimit:10;stroke-opacity:1;stroke-dasharray:none"
           id="path3234"
           inkscape:connector-curvature="0" /></g></g><g
       id="g3236"
       transform="translate(-12.8,0)"><path
         d="m 239.04,93.96 0,251.11"
         style="fill:none;stroke:#000000;stroke-width:0.75;stroke-linecap:round;stroke-linejoin:round;stroke-miterlimit:10;stroke-opacity:1;stroke-dasharray:none"
         id="path3238"
         inkscape:connector-curvature="0" /><path
         d="m 239.04,93.96 -7.2,0"
         style="fill:none;stroke:#000000;stroke-width:0.75;stroke-linecap:round;stroke-linejoin:round;stroke-miterlimit:10;stroke-opacity:1;stroke-dasharray:none"
         id="path3240"
         inkscape:connector-curvature="0" /><path
         d="m 239.04,144.18 -7.2,0"
         style="fill:none;stroke:#000000;stroke-width:0.75;stroke-linecap:round;stroke-linejoin:round;stroke-miterlimit:10;stroke-opacity:1;stroke-dasharray:none"
         id="path3242"
         inkscape:connector-curvature="0" /><path
         d="m 239.04,194.4 -7.2,0"
         style="fill:none;stroke:#000000;stroke-width:0.75;stroke-linecap:round;stroke-linejoin:round;stroke-miterlimit:10;stroke-opacity:1;stroke-dasharray:none"
         id="path3244"
         inkscape:connector-curvature="0" /><path
         d="m 239.04,244.62 -7.2,0"
         style="fill:none;stroke:#000000;stroke-width:0.75;stroke-linecap:round;stroke-linejoin:round;stroke-miterlimit:10;stroke-opacity:1;stroke-dasharray:none"
         id="path3246"
         inkscape:connector-curvature="0" /><path
         d="m 239.04,294.84 -7.2,0"
         style="fill:none;stroke:#000000;stroke-width:0.75;stroke-linecap:round;stroke-linejoin:round;stroke-miterlimit:10;stroke-opacity:1;stroke-dasharray:none"
         id="path3248"
         inkscape:connector-curvature="0" /><path
         d="m 239.04,345.07 -7.2,0"
         style="fill:none;stroke:#000000;stroke-width:0.75;stroke-linecap:round;stroke-linejoin:round;stroke-miterlimit:10;stroke-opacity:1;stroke-dasharray:none"
         id="path3250"
         inkscape:connector-curvature="0" /><text
         transform="matrix(0,1,1,0,221.53,85.06)"
         id="text3252"><tspan
           style="font-size:12px;font-variant:normal;font-weight:normal;writing-mode:lr-tb;fill:#000000;fill-opacity:1;fill-rule:nonzero;stroke:none;font-family:Helvetica;-inkscape-font-specification:Helvetica"
           x="0 6.6719999"
           y="0"
           sodipodi:role="line"
           id="tspan3254">10</tspan></text>
<text
         transform="matrix(0,1,1,0,215.57,98.4)"
         id="text3256"><tspan
           style="font-size:8px;font-variant:normal;font-weight:normal;writing-mode:lr-tb;fill:#000000;fill-opacity:1;fill-rule:nonzero;stroke:none;font-family:Helvetica;-inkscape-font-specification:Helvetica"
           x="0"
           y="0"
           id="tspan3258">8</tspan></text>
<text
         transform="matrix(0,1,1,0,221.53,135.28)"
         id="text3260"><tspan
           style="font-size:12px;font-variant:normal;font-weight:normal;writing-mode:lr-tb;fill:#000000;fill-opacity:1;fill-rule:nonzero;stroke:none;font-family:Helvetica;-inkscape-font-specification:Helvetica"
           x="0 6.6719999"
           y="0"
           sodipodi:role="line"
           id="tspan3262">10</tspan></text>
<text
         transform="matrix(0,1,1,0,215.57,148.63)"
         id="text3264"><tspan
           style="font-size:8px;font-variant:normal;font-weight:normal;writing-mode:lr-tb;fill:#000000;fill-opacity:1;fill-rule:nonzero;stroke:none;font-family:Helvetica;-inkscape-font-specification:Helvetica"
           x="0"
           y="0"
           id="tspan3266">9</tspan></text>
<text
         transform="matrix(0,1,1,0,221.53,183.28)"
         id="text3268"><tspan
           style="font-size:12px;font-variant:normal;font-weight:normal;writing-mode:lr-tb;fill:#000000;fill-opacity:1;fill-rule:nonzero;stroke:none;font-family:Helvetica;-inkscape-font-specification:Helvetica"
           x="0 6.6719999"
           y="0"
           sodipodi:role="line"
           id="tspan3270">10</tspan></text>
<text
         transform="matrix(0,1,1,0,215.57,196.62)"
         id="text3272"><tspan
           style="font-size:8px;font-variant:normal;font-weight:normal;writing-mode:lr-tb;fill:#000000;fill-opacity:1;fill-rule:nonzero;stroke:none;font-family:Helvetica;-inkscape-font-specification:Helvetica"
           x="0 4.448"
           y="0"
           sodipodi:role="line"
           id="tspan3274">10</tspan></text>
<text
         transform="matrix(0,1,1,0,221.53,233.5)"
         id="text3276"><tspan
           style="font-size:12px;font-variant:normal;font-weight:normal;writing-mode:lr-tb;fill:#000000;fill-opacity:1;fill-rule:nonzero;stroke:none;font-family:Helvetica;-inkscape-font-specification:Helvetica"
           x="0 6.6719999"
           y="0"
           sodipodi:role="line"
           id="tspan3278">10</tspan></text>
<text
         transform="matrix(0,1,1,0,215.57,246.85)"
         id="text3280"><tspan
           style="font-size:8px;font-variant:normal;font-weight:normal;writing-mode:lr-tb;fill:#000000;fill-opacity:1;fill-rule:nonzero;stroke:none;font-family:Helvetica;-inkscape-font-specification:Helvetica"
           x="0 4.448"
           y="0"
           sodipodi:role="line"
           id="tspan3282">11</tspan></text>
<text
         transform="matrix(0,1,1,0,221.53,283.72)"
         id="text3284"><tspan
           style="font-size:12px;font-variant:normal;font-weight:normal;writing-mode:lr-tb;fill:#000000;fill-opacity:1;fill-rule:nonzero;stroke:none;font-family:Helvetica;-inkscape-font-specification:Helvetica"
           x="0 6.6719999"
           y="0"
           sodipodi:role="line"
           id="tspan3286">10</tspan></text>
<text
         transform="matrix(0,1,1,0,215.57,297.07)"
         id="text3288"><tspan
           style="font-size:8px;font-variant:normal;font-weight:normal;writing-mode:lr-tb;fill:#000000;fill-opacity:1;fill-rule:nonzero;stroke:none;font-family:Helvetica;-inkscape-font-specification:Helvetica"
           x="0 4.448"
           y="0"
           sodipodi:role="line"
           id="tspan3290">12</tspan></text>
<text
         transform="matrix(0,1,1,0,221.53,333.95)"
         id="text3292"><tspan
           style="font-size:12px;font-variant:normal;font-weight:normal;writing-mode:lr-tb;fill:#000000;fill-opacity:1;fill-rule:nonzero;stroke:none;font-family:Helvetica;-inkscape-font-specification:Helvetica"
           x="0 6.6719999"
           y="0"
           sodipodi:role="line"
           id="tspan3294">10</tspan></text>
<text
         transform="matrix(0,1,1,0,215.57,347.29)"
         id="text3296"><tspan
           style="font-size:8px;font-variant:normal;font-weight:normal;writing-mode:lr-tb;fill:#000000;fill-opacity:1;fill-rule:nonzero;stroke:none;font-family:Helvetica;-inkscape-font-specification:Helvetica"
           x="0 4.448"
           y="0"
           sodipodi:role="line"
           id="tspan3298">13</tspan></text>
</g><text
       xml:space="preserve"
       style="font-size:32px;font-style:normal;font-weight:normal;line-height:125%;letter-spacing:0px;word-spacing:0px;fill:#000000;fill-opacity:1;stroke:none;font-family:Sans"
       x="125.66127"
       y="-211.41295"
       id="text3300"
       sodipodi:linespacing="125%"
       transform="scale(1,-1)"><tspan
         sodipodi:role="line"
         id="tspan3302"
         x="125.66127"
         y="-211.41295"
         style="font-size:8px;fill:#b22222;fill-opacity:1;font-family:arial;-inkscape-font-specification:arial">J092198 EG 2212</tspan></text>
<text
       xml:space="preserve"
       style="font-size:32px;font-style:normal;font-weight:normal;line-height:125%;letter-spacing:0px;word-spacing:0px;fill:#000000;fill-opacity:1;stroke:none;font-family:Sans"
       x="125.66127"
       y="-184.98631"
       id="text3304"
       sodipodi:linespacing="125%"
       transform="scale(1,-1)"><tspan
         sodipodi:role="line"
         id="tspan3306"
         x="125.66127"
         y="-184.98631"
         style="font-size:8px;font-style:normal;font-variant:normal;font-weight:normal;font-stretch:normal;fill:#b22222;fill-opacity:1;font-family:Arial;-inkscape-font-specification:Arial">J060801 EG 1102</tspan></text>
<text
       xml:space="preserve"
       style="font-size:32px;font-style:normal;font-weight:normal;line-height:125%;letter-spacing:0px;word-spacing:0px;fill:#000000;fill-opacity:1;stroke:none;font-family:Sans"
       x="125.66127"
       y="-114.33557"
       id="text3308"
       sodipodi:linespacing="125%"
       transform="scale(1,-1)"><tspan
         sodipodi:role="line"
         id="tspan3310"
         x="125.66127"
         y="-114.33557"
         style="font-size:8px;fill:#4682b4;fill-opacity:1;font-family:Arial;-inkscape-font-specification:Arial">J020709 EG 3714</tspan></text>
<text
       xml:space="preserve"
       style="font-size:32px;font-style:normal;font-weight:normal;line-height:125%;letter-spacing:0px;word-spacing:0px;fill:#4682b4;fill-opacity:1;stroke:none;font-family:Sans"
       x="125.66127"
       y="-171.50336"
       id="text3312"
       sodipodi:linespacing="125%"
       transform="scale(1,-1)"><tspan
         sodipodi:role="line"
         id="tspan3314"
         x="125.66127"
         y="-171.50336"
         style="font-size:8px;font-style:normal;font-variant:normal;font-weight:normal;font-stretch:normal;fill:#4682b4;fill-opacity:1;font-family:Arial;-inkscape-font-specification:Arial">J072199 EG 2710</tspan></text>
<text
       transform="scale(1,-1)"
       sodipodi:linespacing="125%"
       id="text4088"
       y="-215.72751"
       x="289.61417"
       style="font-size:32px;font-style:normal;font-weight:normal;line-height:125%;letter-spacing:0px;word-spacing:0px;fill:#000000;fill-opacity:1;stroke:none;font-family:Sans"
       xml:space="preserve"><tspan
         style="font-size:8px;fill:#b22222;fill-opacity:1;font-family:arial;-inkscape-font-specification:arial"
         y="-215.72751"
         x="289.61417"
         id="tspan4090"
         sodipodi:role="line">J092198 EG 2212</tspan></text>
<text
       transform="scale(1,-1)"
       sodipodi:linespacing="125%"
       id="text4092"
       y="-277.74915"
       x="289.61417"
       style="font-size:32px;font-style:normal;font-weight:normal;line-height:125%;letter-spacing:0px;word-spacing:0px;fill:#000000;fill-opacity:1;stroke:none;font-family:Sans"
       xml:space="preserve"><tspan
         style="font-size:8px;font-style:normal;font-variant:normal;font-weight:normal;font-stretch:normal;fill:#b22222;fill-opacity:1;font-family:Arial;-inkscape-font-specification:Arial"
         y="-277.74915"
         x="289.61417"
         id="tspan4094"
         sodipodi:role="line">J060801 EG 1102</tspan></text>
<text
       transform="scale(1,-1)"
       sodipodi:linespacing="125%"
       id="text4096"
       y="-156.94176"
       x="289.61417"
       style="font-size:32px;font-style:normal;font-weight:normal;line-height:125%;letter-spacing:0px;word-spacing:0px;fill:#000000;fill-opacity:1;stroke:none;font-family:Sans"
       xml:space="preserve"><tspan
         style="font-size:8px;fill:#4682b4;fill-opacity:1;font-family:Arial;-inkscape-font-specification:Arial"
         y="-156.94176"
         x="289.61417"
         id="tspan4098"
         sodipodi:role="line">J020709 EG 3714</tspan></text>
<text
       transform="scale(1,-1)"
       sodipodi:linespacing="125%"
       id="text4100"
       y="-206.55908"
       x="289.61417"
       style="font-size:32px;font-style:normal;font-weight:normal;line-height:125%;letter-spacing:0px;word-spacing:0px;fill:#4682b4;fill-opacity:1;stroke:none;font-family:Sans"
       xml:space="preserve"><tspan
         style="font-size:8px;font-style:normal;font-variant:normal;font-weight:normal;font-stretch:normal;fill:#4682b4;fill-opacity:1;font-family:Arial;-inkscape-font-specification:Arial"
         y="-206.55908"
         x="289.61417"
         id="tspan4102"
         sodipodi:role="line">J072199 EG 2710</tspan></text>
</g></svg>